<svg width="306" height="74" viewBox="0 0 306 74" fill="none" xmlns="http://www.w3.org/2000/svg">
<g clip-path="url(#clip0_119_2)">
<path fill-rule="evenodd" clip-rule="evenodd" d="M0 12.8C0 8.31958 0 6.07937 0.871948 4.36808C1.63893 2.86278 2.86278 1.63893 4.36808 0.871948C6.07937 0 8.31958 0 12.8 0H61.2C65.6804 0 67.9206 0 69.6319 0.871948C71.1372 1.63893 72.3611 2.86278 73.1281 4.36808C74 6.07937 74 8.31958 74 12.8V61.2C74 65.6804 74 67.9206 73.1281 69.6319C72.3611 71.1372 71.1372 72.3611 69.6319 73.1281C67.9206 74 65.6804 74 61.2 74H12.8C8.31958 74 6.07937 74 4.36808 73.1281C2.86278 72.3611 1.63893 71.1372 0.871948 69.6319C0 67.9206 0 65.6804 0 61.2V12.8ZM29.52 59.72C39.3 59.72 46.8 52.52 46.8 42.92V17.6H37.5V42.8C37.5 47.36 34.08 50.78 29.52 50.78C24.9 50.78 21.54 47.36 21.54 42.8V17.6H12.24V42.92C12.24 52.52 19.68 59.72 29.52 59.72ZM62.22 28.4V59H53.46V28.4H62.22Z" fill="#0E0F11"/>
<path d="M57.8399 24.5C60.9599 24.5 63.2999 22.22 63.2999 19.1C63.2999 16.04 60.9599 13.76 57.8399 13.76C54.7799 13.76 52.4399 16.04 52.4399 19.1C52.4399 22.22 54.7799 24.5 57.8399 24.5Z" fill="#F74A28"/>
<path d="M103.64 59.72C111.38 59.72 118.04 56.12 121.88 50.42L114.74 45.98C112.34 49.52 108.32 51.74 103.64 51.74C96.08 51.74 90.32 45.98 90.32 38.3C90.32 30.62 96.08 24.86 103.64 24.86C108.32 24.86 112.34 27.08 114.74 30.62L121.88 26.18C118.04 20.48 111.38 16.88 103.64 16.88C91.22 16.88 81.8 26.12 81.8 38.3C81.8 50.48 91.22 59.72 103.64 59.72Z" fill="#0E0F11"/>
<path fill-rule="evenodd" clip-rule="evenodd" d="M157.06 43.7C157.06 52.82 149.98 59.72 140.62 59.72C131.26 59.72 124.18 52.82 124.18 43.7C124.18 34.58 131.26 27.68 140.62 27.68C149.98 27.68 157.06 34.58 157.06 43.7ZM132.22 43.7C132.22 48.5 135.82 52.16 140.62 52.16C145.48 52.16 149.02 48.5 149.02 43.7C149.02 38.9 145.48 35.24 140.62 35.24C135.82 35.24 132.22 38.9 132.22 43.7Z" fill="#0E0F11"/>
<path d="M167.44 59V44.48C167.44 39.26 170.68 35.96 176.26 35.96H177.58V27.92H176.26C172.66 27.92 169.66 29.54 167.44 32.36V28.4H159.64V59H167.44Z" fill="#0E0F11"/>
<path fill-rule="evenodd" clip-rule="evenodd" d="M209.12 53.6C205.94 57.38 201.02 59.72 195.26 59.72C185.54 59.72 178.28 52.76 178.28 43.58C178.28 34.52 185.3 27.68 194.54 27.68C203.72 27.68 210.62 34.52 210.62 43.76C210.62 44.6 210.56 45.68 210.44 46.52H186.74C187.82 50.36 191.06 52.82 195.5 52.82C199.22 52.82 202.28 51.08 203.9 49.04L209.12 53.6ZM194.48 34.52C190.64 34.52 187.64 37.04 186.68 40.82H202.28C201.32 36.98 198.26 34.52 194.48 34.52Z" fill="#0E0F11"/>
<rect opacity="0.2" x="232" y="24" width="74" height="38" rx="5" fill="#0E0F11"/>
<path d="M285.11 35C289.488 35 292.247 37.9429 292.247 42.6597C292.247 47.3662 289.488 50.2988 285.11 50.2988C280.721 50.2988 277.973 47.3662 277.973 42.6597C277.973 37.9429 280.721 35 285.11 35ZM285.11 37.584C282.69 37.584 281.131 39.5527 281.131 42.6597C281.131 45.7563 282.68 47.7148 285.11 47.7148C287.53 47.7148 289.078 45.7563 289.078 42.6597C289.078 39.5527 287.53 37.584 285.11 37.584Z" fill="#0E0F11"/>
<path d="M265.078 44.6387V50.0527H261.981V35.2563H268.042C271.446 35.2563 273.394 37.0508 273.394 39.9731C273.394 41.8701 272.41 43.5107 270.708 44.1772L273.825 50.0527H270.318L267.56 44.6387H265.078ZM265.078 37.6763V42.3931H267.744C269.303 42.3931 270.215 41.501 270.215 40.0347C270.215 38.5991 269.251 37.6763 267.713 37.6763H265.078Z" fill="#0E0F11"/>
<path d="M246 35.2563H252.019C255.054 35.2563 257.146 37.2764 257.146 40.3218C257.146 43.3569 254.982 45.3872 251.865 45.3872H249.097V50.0527H246V35.2563ZM249.097 37.707V42.9673H251.188C252.962 42.9673 253.998 42.0239 253.998 40.332C253.998 38.6504 252.973 37.707 251.199 37.707H249.097Z" fill="#0E0F11"/>
</g>
<defs>
<clipPath id="clip0_119_2">
<rect width="306" height="74" fill="white"/>
</clipPath>
</defs>
</svg>
