<svg xmlns="http://www.w3.org/2000/svg" width="24" height="24" viewBox="0 0 24 24" fill="none"><path d="M18.5 10C19.3772 10 20.1958 9.74901 20.8878 9.31493C21.1927 9.12367 21.6211 9.24012 21.7076 9.58954C21.8986 10.3616 22 11.1689 22 12C22 17.5228 17.5228 22 12 22C6.47715 22 2 17.5228 2 12C2 6.47715 6.47715 2 12 2C12.8311 2 13.6384 2.10138 14.4105 2.29244C14.7599 2.37892 14.8763 2.80725 14.6851 3.11219C14.251 3.80424 14 4.62281 14 5.5C14 7.98528 16.0147 10 18.5 10Z" fill="black"></path><path d="M21 5.5C21 6.88071 19.8807 8 18.5 8C17.1193 8 16 6.88071 16 5.5C16 4.11929 17.1193 3 18.5 3C19.8807 3 21 4.11929 21 5.5Z" fill="#F60D0D"></path></svg>